<svg width="28" height="28" viewBox="0 0 28 28" fill="none" xmlns="http://www.w3.org/2000/svg">
<g id="icons / github" clip-path="url(#clip0_3_5815)">
<g id="SVGRepo_iconCarrier">
<g id="Page-1">
<g id="Dribbble-Light-Preview">
<g id="icons">
<path id="github-[#142]" fill-rule="evenodd" clip-rule="evenodd" d="M14 0C21.7322 0 28 6.4259 28 14.3541C28 20.6947 23.9932 26.0735 18.4338 27.9733C17.724 28.1147 17.472 27.6665 17.472 27.2843C17.472 26.8111 17.4888 25.2655 17.4888 23.3447C17.4888 22.0063 17.0408 21.1328 16.5382 20.6876C19.656 20.332 22.932 19.1181 22.932 13.6049C22.932 12.0369 22.3888 10.7573 21.49 9.75215C21.6356 9.38955 22.1158 7.92953 21.3528 5.95273C21.3528 5.95273 20.1796 5.56811 17.507 7.42451C16.3884 7.10671 15.19 6.94681 14 6.94121C12.81 6.94681 11.613 7.10671 10.4958 7.42451C7.8204 5.56811 6.6444 5.95273 6.6444 5.95273C5.8842 7.92953 6.3644 9.38955 6.5086 9.75215C5.614 10.7573 5.0666 12.0369 5.0666 13.6049C5.0666 19.1041 8.3356 20.3366 11.445 20.6992C11.0446 21.0576 10.682 21.6899 10.556 22.6181C9.758 22.9849 7.7308 23.6197 6.482 21.4259C6.482 21.4259 5.7414 20.0467 4.3358 19.9459C4.3358 19.9459 2.9708 19.9278 4.2406 20.8182C4.2406 20.8182 5.1576 21.2592 5.7946 22.9182C5.7946 22.9182 6.6164 25.4801 10.5112 24.6121C10.5182 25.8119 10.5308 26.9427 10.5308 27.2843C10.5308 27.6637 10.2732 28.1077 9.5746 27.9747C4.011 26.0777 0 20.6961 0 14.3541C0 6.4259 6.2692 0 14 0Z" fill="black"/>
</g>
</g>
</g>
</g>
</g>
<defs>
<clipPath id="clip0_3_5815">
<rect width="28" height="28" fill="white"/>
</clipPath>
</defs>
</svg>
