<svg width="28" height="28" viewBox="0 0 28 28" fill="none" xmlns="http://www.w3.org/2000/svg">
<rect width="28" height="28" rx="14" fill="white"/>
<path d="M23.0665 14.2143C23.0665 13.5796 23.0145 12.9423 22.9051 12.3183H14.0515V15.9117H19.121C19.0164 16.4868 18.7962 17.0346 18.4738 17.5221C18.1513 18.0096 17.7333 18.4266 17.245 18.7478V21.0812H20.2704C22.0465 19.4545 23.0665 17.0544 23.0665 14.2143Z" fill="#4285F4"/>
<path d="M14.0552 23.3333C16.5859 23.3333 18.7207 22.5066 20.2754 21.0799L17.2513 18.7478C16.4099 19.3172 15.3232 19.6399 14.0578 19.6399C11.6097 19.6399 9.53368 17.9971 8.78832 15.7891H5.66821V18.1931C6.45437 19.7415 7.65439 21.0416 9.13496 21.949C10.6155 22.8564 12.3187 23.3356 14.0552 23.3333Z" fill="#34A853"/>
<path d="M8.78271 15.7891C8.38952 14.6304 8.38952 13.3743 8.78271 12.2156V9.81152H5.66528C5.00878 11.111 4.66675 12.5465 4.66675 14.0023C4.66675 15.4582 5.00878 16.8937 5.66528 18.1931L8.78271 15.7891Z" fill="#FBBC04"/>
<path d="M14.0552 8.35949C15.392 8.33781 16.6843 8.84035 17.6553 9.75953L20.3354 7.09411C18.6321 5.50747 16.3828 4.63832 14.0552 4.66736C12.3182 4.66516 10.6146 5.14482 9.13397 6.05299C7.65331 6.96116 6.45358 8.26224 5.66821 9.81154L8.78298 12.2129C9.52434 10.0022 11.6044 8.35949 14.0525 8.35949H14.0552Z" fill="#EA4335"/>
</svg>
