<svg width="24" height="24" viewBox="0 0 24 24" fill="none" xmlns="http://www.w3.org/2000/svg">
<g id="icons / key">
<path id="Vector" fill-rule="evenodd" clip-rule="evenodd" d="M18.084 2.68283C18.2869 2.47311 18.5295 2.30599 18.7978 2.19124C19.066 2.07649 19.3545 2.01643 19.6463 2.01457C19.938 2.01272 20.2272 2.0691 20.4969 2.18042C20.7666 2.29175 21.0114 2.45577 21.2169 2.66289C21.4266 2.86568 21.5937 3.10827 21.7084 3.37646C21.8231 3.64465 21.8831 3.93305 21.885 4.22474C21.8869 4.51644 21.8305 4.80557 21.7192 5.0752C21.6079 5.34483 21.4439 5.58953 21.2368 5.79497L20.9167 6.11922L21.5763 6.77058C21.708 6.90179 21.8049 7.06368 21.8584 7.24166C21.912 7.41965 21.9204 7.60815 21.883 7.79021C21.8456 7.97227 21.7635 8.14217 21.6441 8.28462C21.5248 8.42708 21.3719 8.53762 21.1992 8.6063L21.5905 8.99269C21.801 9.20058 21.9203 9.48359 21.9222 9.77947C21.9241 10.0753 21.8084 10.3598 21.6005 10.5704C21.3927 10.7809 21.1097 10.9003 20.8138 10.9022C20.518 10.9041 20.2335 10.7883 20.023 10.5804L19.6317 10.194C19.5749 10.3401 19.4888 10.473 19.3786 10.5846C19.2685 10.6961 19.1367 10.7839 18.9914 10.8426L19.3827 11.229C19.5932 11.4368 19.7126 11.7198 19.7144 12.0157C19.7163 12.3116 19.6006 12.5961 19.3927 12.8067C19.1849 13.0172 18.9019 13.1365 18.606 13.1384C18.3102 13.1403 18.0257 13.0246 17.8152 12.8167L16.0397 11.0613L12.7171 14.438C12.7061 14.4492 12.6839 14.4604 12.6729 14.4716C12.9357 15.1162 13.0721 15.8052 13.0746 16.5013C13.0816 17.6 12.7627 18.6761 12.1581 19.5936C11.5536 20.511 10.6906 21.2286 9.67824 21.6555C8.66591 22.0825 7.54973 22.1996 6.47084 21.9921C5.39195 21.7846 4.39881 21.2618 3.61701 20.4898C2.83522 19.7178 2.29987 18.7313 2.07868 17.6551C1.85749 16.5788 1.96039 15.4611 2.37436 14.4434C2.78833 13.4256 3.49478 12.5535 4.40437 11.9372C5.31397 11.321 6.38586 10.9883 7.4845 10.9813C8.18084 10.9749 8.87192 11.1025 9.52003 11.3573C9.53106 11.3461 9.54203 11.3238 9.55307 11.3126L18.084 2.68283ZM5.29793 16.5508C5.30168 17.1401 5.53937 17.7038 5.95872 18.1179C6.37806 18.532 6.9447 18.7625 7.53399 18.7588C8.12328 18.755 8.68694 18.5173 9.10098 18.0979C9.51502 17.6785 9.74552 17.1118 9.74177 16.5225C9.73802 15.9332 9.50033 15.3694 9.08098 14.9554C8.66164 14.5413 8.095 14.3108 7.50571 14.3145C6.91642 14.3183 6.35276 14.556 5.93872 14.9754C5.52468 15.3947 5.29418 15.9614 5.29793 16.5508Z" fill="black" fill-opacity="0.6"/>
</g>
</svg>
