<svg width="127" height="71" viewBox="0 0 127 71" fill="none" xmlns="http://www.w3.org/2000/svg">
<path d="M28.908 49.696C23.1 53.2 15.9 51.136 14.172 44.752C10.38 30.592 22.716 12.448 33.324 5.392C38.316 2.08 43.74 0.495996 48.684 2.752C55.356 5.824 50.988 18.016 42.876 18.016C36.54 18.016 37.836 9.184 43.26 12.4C45.324 13.648 48.54 12.016 49.548 8.992C50.46 6.304 48.396 3.952 45.708 3.472C41.724 2.704 37.884 5.248 35.004 7.888C27.66 14.608 21.036 23.92 19.836 36.016C19.26 41.872 23.052 50.368 30.684 46L31.356 45.568C34.236 38.272 37.74 30.592 41.772 27.28C45.324 24.352 48.156 27.616 40.764 34.336C35.772 44.8 36.732 51.04 27.708 62.368C23.628 67.504 16.572 70.912 9.468 68.992C1.356 66.784 0.54 58.096 2.844 53.2C6.54 45.328 13.74 47.344 12.108 51.472C10.668 55.168 7.548 53.2 5.532 55.216C2.46 58.24 4.188 65.344 10.044 67.072C14.892 68.512 23.244 66.88 27.276 56.368C28.092 54.208 29.052 51.616 30.108 48.88C29.676 49.216 29.292 49.456 28.908 49.696ZM51.9833 46.384C46.4633 46.384 43.4872 42.16 45.3592 34.384C46.9913 27.616 51.6473 22.144 56.8313 21.808C62.2073 21.472 65.3753 25.984 63.7913 33.184C62.3033 39.952 56.8793 46.384 51.9833 46.384ZM50.5913 35.104C48.8153 41.728 49.9673 44.992 52.2233 44.224C54.4793 43.504 57.0713 37.744 58.3672 32.464C59.7113 26.8 59.3753 23.344 57.4073 23.68C55.1513 24.064 52.0793 29.536 50.5913 35.104ZM71.3591 46.72C64.7831 46.72 63.3911 39.904 64.9271 35.728C66.2711 32.08 71.3111 33.808 69.1031 37.456C66.6071 41.632 68.1431 44.896 71.4071 44.896C73.2311 44.896 74.6231 43.888 75.0071 41.296C75.6311 36.784 70.3511 33.376 69.6791 28.768C68.9111 23.536 72.7991 20.848 76.0631 20.896C79.3271 20.944 81.5831 22.432 82.0631 25.264C82.7831 29.584 77.0711 29.68 77.7431 26.128C78.0791 24.4 78.0311 22.432 76.4471 22.288C74.7671 22.144 73.3271 23.92 73.9511 26.752C74.6711 30.016 79.0871 32.992 79.4711 38.32C79.7591 42.4 76.3511 46.72 71.3591 46.72ZM87.3435 46.72C80.7675 46.72 79.3755 39.904 80.9115 35.728C82.2555 32.08 87.2955 33.808 85.0875 37.456C82.5915 41.632 84.1275 44.896 87.3915 44.896C89.2155 44.896 90.6075 43.888 90.9915 41.296C91.6155 36.784 86.3355 33.376 85.6635 28.768C84.8955 23.536 88.7835 20.848 92.0475 20.896C95.3115 20.944 97.5675 22.432 98.0475 25.264C98.7675 29.584 93.0555 29.68 93.7275 26.128C94.0635 24.4 94.0155 22.432 92.4315 22.288C90.7515 22.144 89.3115 23.92 89.9355 26.752C90.6555 30.016 95.0715 32.992 95.4555 38.32C95.7435 42.4 92.3355 46.72 87.3435 46.72ZM105.056 18.688C103.328 18.208 102.368 16.048 102.896 13.84C103.52 11.68 105.296 10.336 107.024 10.816C108.752 11.296 109.712 13.456 109.184 15.616C108.608 17.776 106.784 19.168 105.056 18.688ZM97.2319 38.8C97.5679 37.696 100.304 27.664 100.688 26.56C101.456 24.256 101.648 22.864 100.688 22H104.864C106.352 22 106.736 22.816 106.352 24.256C106.112 25.072 102.464 39.232 102.128 40.336C101.648 42.016 101.36 42.976 102.512 42.976C104.096 42.976 105.92 41.056 108.272 33.904H109.856C108.368 39.568 105.632 46.384 100.208 46.384C97.2319 46.384 96.0799 42.592 97.2319 38.8ZM99.0652 63.28C99.8332 62.896 100.217 62.08 100.745 60.256C101.321 58.336 109.673 28.864 110.345 26.56C111.017 24.256 111.305 23.008 110.345 22H111.449C113.513 22 115.145 23.536 114.857 26.128C116.633 23.104 118.745 21.232 121.193 21.232C125.849 21.232 126.665 26.608 124.697 33.904C122.873 40.576 118.169 46.384 113.561 46.384C112.025 46.384 110.969 45.904 110.297 45.04C108.185 52.672 106.217 59.872 106.025 60.64C105.689 62.128 104.921 63.28 103.385 63.28H99.0652ZM110.873 42.976C111.257 43.984 112.121 44.416 113.225 43.888C116.057 42.592 117.929 38.032 119.369 32.752C120.953 26.848 120.857 23.824 118.889 24.256C116.969 24.688 114.713 29.152 113.033 35.008L110.873 42.976Z" fill="black" fill-opacity="0.87"/>
</svg>
